<svg id="Layer_1" data-name="Layer 1" xmlns="http://www.w3.org/2000/svg" width="220.58" height="195.66" viewBox="0 0 220.58 195.66"><title>flower</title><path d="M7247.29,7186.52c5.07,5.7,15.52,3.9,19.57-2.56s2.13-15.52-3.18-21-13.26-7.75-20.89-7.71c-5.68,0-11.64,1.37-15.8,5.24-7.85,7.31-6,21.06,1.32,28.94s18.18,11.17,28.67,13.43c7.57,1.63,15.45,2.89,23,1.22a31.31,31.31,0,0,0,23.77-27.44,6.92,6.92,0,0,0-.81-4.51c-1-1.47-2.9-2-4.65-2.42a57.84,57.84,0,0,0-18.12-1.08,18.71,18.71,0,0,1-5.13,8.15c9.94-2.38,17.05-11.66,19.81-21.51s2-20.29,1.15-30.48c-13.53-7.76-33.3-.25-38.26,14.54,1.06-10-3.83-20.71-12.8-25.18s-21.47-1.12-25.86,7.89c-1.54,3.15-2.07,6.68-2.58,10.15l-2.12,14.43c-13.82-5.38-31.19,1.17-38,14.33a19.29,19.29,0,0,0-2.44,9.19,18.92,18.92,0,0,0,4.07,10.64,29,29,0,0,0,25.47,11.36,18.29,18.29,0,0,0-19.61,26.74c3.47,6.31,10.38,10,17.37,11.75,20.4,5,43.57-6.37,52.13-25.54a888.51,888.51,0,0,1,23.26,99.09c-9.18-2.86-12-14.91-20.14-20s-19.16-1.69-27.77,2.93-17.5,10.43-27.23,9.5c-12.12-1.17-21.79-12.66-34-12.39-5.76.13-11.07,2.92-16.43,5a73,73,0,0,1-35.43,4.49c-5.33-.66-10.64-1.91-16-1.57s-11,2.6-13.62,7.28" transform="translate(-7084.72 -7110.68)" fill="none" stroke="#6797a1" stroke-miterlimit="10" stroke-width="3"/></svg>